<svg width="24" height="24" viewBox="0 0 24 24" fill="none" xmlns="http://www.w3.org/2000/svg">
  <path d="M12 14C13.66 14 15 12.66 15 11V5C15 3.34 13.66 2 12 2C10.34 2 9 3.34 9 5V11C9 12.66 10.34 14 12 14Z" fill="currentColor"/>
  <path d="M17 11C17 14.31 14.31 17 11 17H13C16.31 17 19 14.31 19 11H17Z" fill="currentColor"/>
  <path d="M7 11C7 14.31 9.69 17 13 17H11C7.69 17 5 14.31 5 11H7Z" fill="currentColor"/>
  <path d="M11 19V22H13V19H11Z" fill="currentColor"/>
  <path d="M8 22H16V20H8V22Z" fill="currentColor"/>
</svg>